<svg width="39" height="40" viewBox="0 0 39 40" fill="none" xmlns="http://www.w3.org/2000/svg">
<path d="M0 19.5C0 16.874 0.519997 14.352 1.56 11.934C2.6 9.516 3.978 7.436 5.694 5.694C7.41 3.952 9.48999 2.574 11.934 1.56C14.378 0.546 16.9 0.026 19.5 0C22.152 0 24.687 0.52 27.105 1.56C29.523 2.6 31.59 3.978 33.306 5.694C35.022 7.41 36.4 9.49 37.44 11.934C38.48 14.378 39 16.9 39 19.5C39 22.1 38.48 24.635 37.44 27.105C36.4 29.575 35.022 31.642 33.306 33.306C31.59 34.97 29.523 36.361 27.105 37.479C24.687 38.597 22.152 39.104 19.5 39C16.848 39 14.326 38.493 11.934 37.479C9.54199 36.465 7.462 35.074 5.694 33.306C3.926 31.538 2.548 29.471 1.56 27.105C0.571998 24.739 0.052 22.204 0 19.5ZM4.875 19.5C4.875 22.152 5.525 24.609 6.825 26.871C8.125 29.133 9.906 30.901 12.168 32.175C14.43 33.449 16.874 34.099 19.5 34.125C22.126 34.151 24.57 33.501 26.832 32.175C29.094 30.849 30.875 29.081 32.175 26.871C33.475 24.661 34.125 22.204 34.125 19.5C34.125 16.796 33.475 14.352 32.175 12.168C30.875 9.984 29.094 8.216 26.832 6.864C24.57 5.512 22.126 4.849 19.5 4.875C16.874 4.901 14.43 5.564 12.168 6.864C9.906 8.164 8.125 9.932 6.825 12.168C5.525 14.404 4.875 16.848 4.875 19.5ZM7.332 19.5C7.332 17.862 7.64399 16.289 8.26799 14.781C8.89199 13.273 9.763 11.973 10.881 10.881C11.999 9.789 13.299 8.931 14.781 8.307C16.263 7.683 17.836 7.358 19.5 7.332V9.75C16.822 9.75 14.521 10.712 12.597 12.636C10.673 14.56 9.724 16.848 9.75 19.5H7.332ZM12.207 19.5C12.207 17.498 12.909 15.782 14.313 14.352C15.717 12.922 17.446 12.207 19.5 12.207C21.554 12.207 23.283 12.922 24.687 14.352C26.091 15.782 26.806 17.498 26.832 19.5C26.858 21.502 26.143 23.231 24.687 24.687C23.231 26.143 21.502 26.858 19.5 26.832C17.498 26.806 15.769 26.091 14.313 24.687C12.857 23.283 12.155 21.554 12.207 19.5ZM17.082 19.5C17.082 20.176 17.316 20.761 17.784 21.255C18.252 21.749 18.824 21.983 19.5 21.957C20.176 21.931 20.748 21.697 21.216 21.255C21.684 20.813 21.931 20.228 21.957 19.5C21.983 18.772 21.736 18.2 21.216 17.784C20.696 17.368 20.124 17.134 19.5 17.082C18.876 17.03 18.304 17.264 17.784 17.784C17.264 18.304 17.03 18.876 17.082 19.5ZM19.5 31.707V29.25C22.204 29.25 24.505 28.301 26.403 26.403C28.301 24.505 29.25 22.204 29.25 19.5H31.707C31.707 21.71 31.161 23.751 30.069 25.623C28.977 27.495 27.495 28.977 25.623 30.069C23.751 31.161 21.71 31.707 19.5 31.707Z" fill="#626EFF"/>
</svg>
